<svg width="103" height="24" viewBox="0 0 103 24" fill="none" xmlns="http://www.w3.org/2000/svg">
<g id="Frame 9">
<g id="Group 4">
<g id="Group">
<path id="Vector" d="M31.1591 8.41205V15.5604C31.1591 16.11 30.9084 16.5838 30.3992 16.912C24.0385 21.0135 19.223 22.736 17.5376 23.2156C15.2147 23.8778 13.9832 23.8079 13.7819 23.7943C9.5388 23.4933 2.39258 17.7451 2.39258 17.7451C2.39258 17.7451 8.22442 19.1472 21.6979 12.8358C24.224 11.6531 27.0442 10.3754 30.3223 8.88009C30.3223 8.88009 31.0387 8.57513 31.1591 8.41394V8.41205Z" fill="white" style="fill:white;fill-opacity:1;"/>
<path id="Vector_2" d="M30.8236 8.16933C30.8611 8.13826 30.9085 8.09743 30.9302 8.07024C30.9598 8.03335 30.9854 7.99647 31.0012 7.95181C31.0446 7.83141 31.0308 7.68188 30.9617 7.57119C30.8374 7.36923 30.6282 7.23519 30.3992 7.0876C24.0385 2.98617 19.223 1.26365 17.5376 0.783989C15.2147 0.12178 13.9832 0.191694 13.7819 0.205288C9.5388 0.506292 2.39258 6.25458 2.39258 6.25458C2.39258 6.25458 8.22442 4.85244 21.6979 11.1638C22.132 11.3677 22.5741 11.5736 23.0261 11.7814L30.3874 8.42175C30.3874 8.42175 30.7585 8.21982 30.8236 8.16933Z" fill="white" style="fill:white;fill-opacity:1;"/>
<path id="Vector_3" d="M9.22334 11.993C9.23123 10.4686 9.42463 8.94217 9.78185 7.43326L9.82921 7.24485C7.17675 6.63119 5.219 6.50116 4.04474 6.50116C3.07572 6.50116 2.56062 6.58848 2.38497 6.62538C2.06921 6.69335 1.84621 6.94196 1.68635 7.14975C0.737074 8.38872 0.194336 10.154 0.194336 11.993C0.194336 13.832 0.737074 15.5992 1.68635 16.8362C1.84621 17.044 2.06921 17.2907 2.38497 17.3606C2.56062 17.3975 3.07572 17.4848 4.04474 17.4848C5.219 17.4848 7.17478 17.3548 9.82921 16.7411L9.78185 16.5527C9.42463 15.0438 9.23123 13.5174 9.22334 11.993Z" fill="white" style="fill:white;fill-opacity:1;"/>
</g>
</g>
<g id="Group_2">
<path id="Vector_4" d="M42.5848 3.70178H47.0213L54.0924 20.1813H49.1566L47.9468 17.2591H41.5408L40.3547 20.1813H35.5137L42.5848 3.70178ZM46.6187 13.7303L44.7675 9.07764L42.8927 13.7303H46.6187Z" fill="white" style="fill:white;fill-opacity:1;"/>
<path id="Vector_5" d="M52.999 12.0465V11.9999C52.999 7.23065 56.725 3.49179 61.7536 3.49179C65.146 3.49179 67.3287 4.89366 68.801 6.90402L65.3375 9.54624C64.3882 8.37774 63.2968 7.62923 61.7062 7.62923C59.3814 7.62923 57.7434 9.56955 57.7434 11.9532V11.9999C57.7434 14.4536 59.3814 16.3706 61.7062 16.3706C63.4389 16.3706 64.4592 15.5754 65.4559 14.3835L68.9194 16.8139C67.3524 18.9409 65.2408 20.508 61.5641 20.508C56.8178 20.508 52.999 16.9305 52.999 12.0465Z" fill="white" style="fill:white;fill-opacity:1;"/>
<path id="Vector_6" d="M70.3643 3.81842H74.9665V10.458L80.6858 3.81842H86.1425L79.8549 10.8547L86.3557 20.1812H80.8279L76.6519 14.1035L74.9665 15.9506V20.1812H70.3643V3.81842Z" fill="white" style="fill:white;fill-opacity:1;"/>
<path id="Vector_7" d="M84.9922 12.0465V11.9999C84.9922 7.30064 88.8366 3.49179 93.9618 3.49179C99.0871 3.49179 102.884 7.25588 102.884 11.9532V11.9999C102.884 16.6992 99.0397 20.508 93.9145 20.508C88.7892 20.508 84.9922 16.7439 84.9922 12.0465ZM98.1852 12.0465V11.9999C98.1852 9.63959 96.4524 7.58252 93.9145 7.58252C91.3765 7.58252 89.7148 9.59288 89.7148 11.9532V11.9999C89.7148 14.3603 91.4476 16.4172 93.9618 16.4172C96.4761 16.4172 98.1852 14.4069 98.1852 12.0465Z" fill="white" style="fill:white;fill-opacity:1;"/>
</g>
</g>
</svg>
