<svg width="17" height="40" viewBox="0 0 17 40" fill="none" xmlns="http://www.w3.org/2000/svg">
<g clip-path="url(#clip0_4850_3289)">
<path d="M9.26442 37.826C9.26442 37.826 12.3626 41.8198 16.6437 38.9864C17.8097 35.3418 15.4326 32.9421 14.6608 32.4014C13.5849 34.5757 14.2947 37.4091 14.2947 37.4091C11.8105 36.2769 9.25879 37.826 9.25879 37.826H9.26442Z" fill="#474649"/>
<path d="M4.49316 31.421C4.49316 31.421 6.46472 35.7528 11.0049 34.091C12.7174 31.0605 11.2021 28.4073 10.4304 27.6074C9.0728 29.3368 9.1066 31.9505 9.1235 32.0631C7.10125 30.5873 4.49316 31.421 4.49316 31.421Z" fill="#474649"/>
<path d="M1.5791 24.5032C1.5791 24.5032 2.30576 28.9082 6.82343 28.5082C8.95271 26.2043 8.35561 23.5286 7.69655 22.4189C6.1531 23.6526 5.57854 25.8889 5.55601 26.1142C4.07452 24.3849 1.5791 24.5032 1.5791 24.5032Z" fill="#474649"/>
<path d="M0.439635 17.4174C0.439635 17.4174 -0.0391708 21.5576 4.11799 22.3631C6.44442 20.8141 6.69791 18.4031 6.29233 16.9893C4.70382 17.7272 3.68425 19.4621 3.56596 19.7776C2.63088 17.9412 0.439635 17.4174 0.439635 17.4174Z" fill="#474649"/>
<path d="M1.09454 11.1191C1.09454 11.1191 -0.375671 14.7074 3.14496 16.4649C5.44323 15.5861 6.34451 13.6653 6.29381 12.0148C4.79543 12.3415 3.56744 13.5188 3.29705 13.8793C2.85204 12.1049 1.09454 11.1191 1.09454 11.1191Z" fill="#474649"/>
<path d="M3.40672 5.35742C3.40672 5.35742 1.26618 8.22462 4.00382 10.613C6.0993 10.23 7.37799 8.91748 7.74414 7.13182C6.43165 7.17125 5.20365 7.84158 4.76991 8.20209C4.67978 6.59105 3.40672 5.35742 3.40672 5.35742Z" fill="#474649"/>
<path d="M7.18139 -0.000226366C7.18139 -0.000226366 4.6747 2.12342 6.62936 4.82163C8.43755 4.74277 9.83454 4.05554 10.6344 2.21355C9.53599 2.09525 8.47698 2.3769 7.87425 2.68672C8.00381 1.28973 7.18139 -0.00585938 7.18139 -0.00585938V-0.000226366Z" fill="#474649"/>
</g>
<defs>
<clipPath id="clip0_4850_3289">
<rect width="16.5385" height="40" fill="white" transform="translate(0.422852)"/>
</clipPath>
</defs>
</svg>
