<?xml version="1.0" encoding="UTF-8" standalone="no"?><svg xmlns="http://www.w3.org/2000/svg" width="48" height="48" viewBox="0 0 48 48" fill="none"><path d="M0 9C0 4.02944 4.02944 0 9 0H39C43.9706 0 48 4.02944 48 9V39C48 43.9706 43.9706 48 39 48H9C4.02944 48 0 43.9706 0 39V9Z" fill="#FFFFFF" fill-opacity="0.06"/><g clip-path="url(#clip0_5017_11164)" fill="none"><path d="M30.3108 24.8943L30.6608 24.9943C30.6208 25.1743 30.5308 25.3143 30.3708 25.3843C30.2108 25.4643 29.9008 25.4443 29.7508 25.3843C29.6608 25.3443 29.5908 25.2743 29.5308 25.1743C29.3808 24.9543 29.4108 24.4843 29.6008 24.3043C29.8808 24.0243 30.5508 24.0743 30.6508 24.5343L30.3008 24.6043C30.3008 24.6043 30.2808 24.5343 30.2608 24.5143C30.1708 24.3843 29.9508 24.3943 29.8708 24.5343C29.7208 24.7843 29.8708 25.3543 30.2308 25.0843C30.2808 25.0343 30.3008 24.9743 30.3208 24.8943H30.3108Z" fill="#FFFFFF"/><path d="M30.7893 24.7836C30.7293 24.1536 31.5393 23.9436 31.9293 24.2936C32.1893 24.5536 32.1693 25.1736 31.8093 25.3536C31.6293 25.4636 31.2793 25.4536 31.0993 25.3636C30.8893 25.2536 30.7793 25.0336 30.7793 24.7836H30.7893ZM31.1893 24.7836C31.1493 25.0836 31.4393 25.2636 31.6493 25.0636C31.7293 24.9736 31.7493 24.6036 31.6493 24.5136C31.5593 24.4036 31.3493 24.4036 31.2593 24.5136C31.2093 24.5636 31.1893 24.6536 31.1893 24.7736V24.7836Z" fill="#FFFFFF"/><path d="M32.3108 24.1445H32.8208L33.0208 24.9145L33.2208 24.1445H33.7308V25.4145H33.4108V24.4445L33.1608 25.4145H32.8708L32.6208 24.4445V25.4145H32.3008V24.1445H32.3108Z" fill="#FFFFFF"/><path d="M33.9805 24.144C34.1105 24.144 34.7805 24.104 34.9505 24.244C35.0905 24.374 35.0905 24.704 34.9405 24.834C34.8405 24.954 34.5505 24.944 34.3805 24.944V25.414H33.9905V24.144H33.9805ZM34.3705 24.684C34.4505 24.684 34.5805 24.684 34.6305 24.644C34.6905 24.594 34.6905 24.494 34.6305 24.444C34.5905 24.394 34.4405 24.404 34.3705 24.404V24.684Z" fill="#FFFFFF"/><path d="M35.2598 24.1438H35.6498V25.0938H36.2598V25.4038H35.2598V24.1338V24.1438Z" fill="#FFFFFF"/><path d="M36.4512 24.1445H36.8412V25.4145H36.4512V24.1445Z" fill="#FFFFFF"/><path d="M37.9 25.2045H37.46L37.4 25.4145H37L37.48 24.1445H37.91L38.39 25.4145H37.98L37.91 25.2045H37.9ZM37.82 24.9345L37.68 24.4845L37.54 24.9345H37.82Z" fill="#FFFFFF"/><path d="M38.5 24.1445H38.86L39.34 24.8445V24.1445H39.71V25.4145H39.34L38.87 24.7145V25.4145H38.5V24.1445Z" fill="#FFFFFF"/><path d="M39.8809 24.1445H41.0709V24.4545H40.6709V25.4045H40.2809V24.4545H39.8809V24.1445Z" fill="#FFFFFF"/><path d="M6.74023 18.3141L11.2402 30.6041L19.9102 27.8741C19.6602 27.5241 19.4902 27.1441 19.4302 26.7841C19.4302 26.7841 19.4302 26.7841 19.4202 26.7841C19.3602 26.7841 18.7802 26.8041 18.4802 26.7841C15.4402 26.5941 15.4402 24.4241 15.4402 24.3641V23.8441C15.4402 23.7541 15.5502 21.6341 18.4802 21.3941C18.6702 21.3641 19.3802 21.3741 19.4202 21.3941C20.2302 21.4441 20.4902 21.6141 20.4902 21.6141C20.5102 21.6241 20.5202 21.6441 20.5202 21.6641V22.9941C20.5202 22.9941 20.5102 23.0141 20.4902 23.0141C20.4902 23.0141 20.0202 22.7241 19.4402 22.6541H18.9402C17.6102 22.7741 17.5202 23.8341 17.5202 23.8341C17.5202 23.8441 17.5202 23.8741 17.5202 23.8941V24.2741C17.5202 24.2741 17.5202 24.3141 17.5202 24.3341C17.5202 24.3341 17.5802 25.3241 18.9402 25.5541C19.0402 25.5741 19.1702 25.5841 19.4402 25.5541C20.3902 25.4541 20.6102 25.2841 20.6102 25.2841C20.6202 25.2741 20.6302 25.2841 20.6302 25.2941V25.5241C20.9102 25.5741 21.2002 25.7041 21.4802 25.8941V21.4941H23.4902V24.7741C24.2002 23.7541 24.9602 22.7041 25.2102 22.3641L22.9902 17.4141L6.74023 18.3141ZM11.9002 25.1541C11.9002 25.1541 11.8702 25.1641 11.8702 25.1841V26.7141C11.8702 26.7141 11.8602 26.7441 11.8402 26.7441H9.88023C9.88023 26.7441 9.85023 26.7341 9.85023 26.7141V21.4941C9.85023 21.4941 9.86023 21.4641 9.88023 21.4641H12.4202C13.0602 21.4341 15.0302 21.6141 15.0302 23.2741C15.0302 25.3741 11.8902 25.1541 11.8902 25.1541H11.9002ZM23.7202 19.8041C23.7202 20.4441 23.1702 20.9641 22.4902 20.9641C21.8102 20.9641 21.2602 20.4441 21.2602 19.8041C21.2602 19.1641 21.8102 18.6441 22.4902 18.6441C23.1702 18.6441 23.7202 19.1641 23.7202 19.8041Z" fill="#FFFFFF"/><path d="M12.3198 22.6145H11.8398V23.9845H12.3798C12.3798 23.9845 12.9798 23.9545 13.0798 23.3945C13.0898 23.3845 13.0898 23.1445 13.0798 23.1145C13.0198 22.6345 12.3298 22.6045 12.3298 22.6045L12.3198 22.6145Z" fill="#FFFFFF"/><path d="M26.3696 24.9045C26.0996 25.2445 25.8296 25.6845 25.5996 26.0745L26.7296 25.7145L26.3596 24.8945L26.3696 24.9045Z" fill="#FFFFFF"/><path d="M22.55 29.2741C22.71 29.2741 22.84 29.2741 23.04 29.1841C23.75 28.8141 26.16 22.9241 28.71 21.1141C28.73 21.1041 28.74 21.0841 28.76 21.0641C28.78 21.0441 28.78 21.0141 28.78 21.0141C28.78 21.0141 28.78 20.8941 28.41 20.8941C26.15 20.8341 23.8 25.5741 22.56 27.4541C22.54 27.4741 22.46 27.4541 22.46 27.4541C22.46 27.4541 21.63 26.4741 20.91 26.1041C20.89 26.1041 20.81 26.0741 20.73 26.0741C20.67 26.0741 20.34 26.1441 20.18 26.3041C20 26.5041 20 26.6041 20 26.8441C20 26.8641 20.01 26.9441 20.03 26.9841C20.21 27.2941 21.01 28.4041 21.67 29.0041C21.77 29.0741 21.92 29.2641 22.55 29.2641V29.2741Z" fill="#2BBC5D"/><path d="M29.3809 19.334H31.2609C31.6309 19.334 31.9309 19.384 32.1609 19.484C32.3909 19.584 32.5809 19.734 32.7209 19.914C32.8709 20.104 32.9809 20.324 33.0409 20.574C33.1109 20.824 33.1409 21.084 33.1409 21.364C33.1409 21.804 33.0909 22.144 32.9909 22.384C32.8909 22.624 32.7509 22.824 32.5809 22.994C32.4009 23.154 32.2109 23.264 32.0109 23.324C31.7309 23.394 31.4809 23.434 31.2609 23.434H29.3809V19.334ZM30.6409 20.254V22.494H30.9509C31.2409 22.494 31.5609 22.474 31.7309 22.194C31.8109 22.064 31.8409 21.904 31.8609 21.744C31.8909 21.484 31.8909 21.224 31.8509 20.974C31.8309 20.814 31.7909 20.644 31.6809 20.514C31.5109 20.304 31.2109 20.254 30.9609 20.254H30.6409Z" fill="#FFFFFF"/><path d="M33.5 22.0737L34.71 22.0037C34.74 22.2037 34.79 22.3537 34.87 22.4537C35 22.6237 35.19 22.7037 35.43 22.7037C35.61 22.7037 35.75 22.6637 35.85 22.5737C35.95 22.4837 36 22.3937 36 22.2837C36 22.1837 35.95 22.0837 35.86 21.9937C35.77 21.9037 35.55 21.8337 35.21 21.7537C34.65 21.6237 34.26 21.4637 34.02 21.2537C33.78 21.0437 33.66 20.7837 33.66 20.4637C33.66 20.2537 33.72 20.0537 33.84 19.8637C33.96 19.6737 34.14 19.5337 34.39 19.4237C34.64 19.3137 34.97 19.2637 35.4 19.2637C35.92 19.2637 36.33 19.3637 36.6 19.5537C36.88 19.7537 37.04 20.0637 37.09 20.4837L35.89 20.5537C35.86 20.3737 35.79 20.2337 35.69 20.1537C35.59 20.0637 35.45 20.0237 35.27 20.0237C35.12 20.0237 35.01 20.0537 34.94 20.1137C34.87 20.1737 34.83 20.2537 34.83 20.3437C34.83 20.4037 34.86 20.4737 34.92 20.5237C34.98 20.5737 35.12 20.6237 35.35 20.6737C35.9 20.7937 36.3 20.9137 36.54 21.0337C36.78 21.1537 36.95 21.3137 37.06 21.4837C37.17 21.6637 37.22 21.8737 37.22 22.0937C37.22 22.3537 37.15 22.6037 37 22.8137C36.86 23.0337 36.65 23.2037 36.39 23.3237C36.13 23.4437 35.8 23.4937 35.4 23.4937C34.7 23.4937 34.22 23.3637 33.95 23.0937C33.69 22.8237 33.54 22.4837 33.5 22.0737Z" fill="#FFFFFF"/><path d="M37.541 22.0737L38.751 22.0037C38.781 22.2037 38.831 22.3537 38.911 22.4537C39.041 22.6237 39.231 22.7037 39.471 22.7037C39.651 22.7037 39.791 22.6637 39.891 22.5737C39.991 22.4837 40.041 22.3937 40.041 22.2837C40.041 22.1837 39.991 22.0837 39.901 21.9937C39.811 21.9037 39.591 21.8337 39.251 21.7537C38.691 21.6237 38.301 21.4637 38.061 21.2537C37.821 21.0437 37.701 20.7837 37.701 20.4637C37.701 20.2537 37.761 20.0537 37.881 19.8637C38.001 19.6737 38.181 19.5337 38.431 19.4237C38.681 19.3137 39.011 19.2637 39.441 19.2637C39.961 19.2637 40.371 19.3637 40.641 19.5537C40.921 19.7537 41.081 20.0637 41.131 20.4837L39.931 20.5537C39.901 20.3737 39.831 20.2337 39.731 20.1537C39.631 20.0637 39.491 20.0237 39.311 20.0237C39.161 20.0237 39.051 20.0537 38.981 20.1137C38.911 20.1737 38.871 20.2537 38.871 20.3437C38.871 20.4037 38.901 20.4737 38.961 20.5237C39.021 20.5737 39.161 20.6237 39.391 20.6737C39.941 20.7937 40.341 20.9137 40.581 21.0337C40.821 21.1537 40.991 21.3137 41.101 21.4837C41.211 21.6637 41.261 21.8737 41.261 22.0937C41.261 22.3537 41.191 22.6037 41.041 22.8137C40.901 23.0337 40.691 23.2037 40.431 23.3237C40.171 23.4437 39.841 23.4937 39.441 23.4937C38.741 23.4937 38.261 23.3637 37.991 23.0937C37.721 22.8237 37.571 22.4837 37.541 22.0737Z" fill="#FFFFFF"/></g><defs><clipPath id="clip0_5017_11164"><rect width="34.52" height="13.21" fill="white" transform="translate(6.74023 17.3945)"/></clipPath></defs></svg>