<?xml version="1.0" encoding="UTF-8" standalone="no"?><svg xmlns="http://www.w3.org/2000/svg" width="48" height="48" viewBox="0 0 48 48" fill="none"><path d="M0 9C0 4.02944 4.02944 0 9 0H39C43.9706 0 48 4.02944 48 9V39C48 43.9706 43.9706 48 39 48H9C4.02944 48 0 43.9706 0 39V9Z" fill="#FFFFFF" fill-opacity="0.06"/><g clip-path="url(#clip0_5017_11201)" fill="none"><path d="M23.9983 13.9502C24.9683 13.9502 25.7583 13.1702 25.7583 12.2002C25.7583 11.2302 24.9683 10.4502 23.9983 10.4502C23.0283 10.4502 22.2383 11.2302 22.2383 12.2002C22.2383 13.1702 23.0283 13.9502 23.9983 13.9502Z" fill="#FFFFFF"/><path d="M25.7583 14.5098H22.2383V26.0298H25.7583V14.5098Z" fill="#FFFFFF"/><path d="M20.1792 14.5098L15.1992 26.0298H21.5392V14.5098H20.1792Z" fill="#FFFFFF"/><path d="M27.819 14.5098L32.799 26.0298H26.459V14.5098H27.819Z" fill="#FFFFFF"/><path d="M28.1499 33.2105H30.3199V37.5405H28.1699V36.8505C28.0399 37.0705 27.8399 37.2405 27.5999 37.3605C27.3499 37.4905 27.0899 37.5505 26.7999 37.5505C26.2499 37.5505 25.8099 37.3405 25.4499 36.9105C25.0999 36.4805 24.9199 35.9405 24.9199 35.2805C24.9199 34.8505 24.9999 34.4605 25.1699 34.1105C25.3399 33.7605 25.5699 33.4905 25.8599 33.2805C26.1499 33.0805 26.4799 32.9805 26.8399 32.9805C27.1199 32.9805 27.3899 33.0405 27.6099 33.1705C27.8399 33.3005 28.0199 33.4605 28.1599 33.7005V33.2205L28.1499 33.2105ZM27.6299 34.6105C27.4499 34.6105 27.3099 34.6705 27.1999 34.8005C27.0899 34.9305 27.0299 35.0805 27.0299 35.2705C27.0299 35.4605 27.0799 35.6105 27.1999 35.7205C27.3099 35.8305 27.4599 35.8905 27.6399 35.8905C27.8199 35.8905 27.9699 35.8305 28.0699 35.7105C28.1799 35.5905 28.2299 35.4405 28.2299 35.2505C28.2299 35.0605 28.1799 34.9105 28.0599 34.7905C27.9499 34.6705 27.7999 34.6105 27.6299 34.6105Z" fill="#FFFFFF"/><path d="M30.6484 33.21H32.8084V37.54H30.6484V33.21Z" fill="#FFFFFF"/><path d="M30.6484 31.84C30.6484 31.55 30.7584 31.31 30.9584 31.1C31.1684 30.9 31.4184 30.79 31.7184 30.79C32.0184 30.79 32.2784 30.89 32.4884 31.1C32.6984 31.3 32.8084 31.55 32.8084 31.84C32.8084 32.13 32.6984 32.38 32.4884 32.58C32.2784 32.78 32.0184 32.88 31.7184 32.88C31.4184 32.88 31.1684 32.78 30.9584 32.58C30.7484 32.38 30.6484 32.13 30.6484 31.84Z" fill="#FFFFFF"/><path d="M15.1992 33.21H17.3592V37.54H15.1992V33.21Z" fill="#FFFFFF"/><path d="M17.6895 33.2105H19.8295V33.8405C20.0395 33.3405 20.4795 32.9805 21.1795 32.9805C21.2395 32.9805 21.2895 32.9805 21.3495 32.9805V35.1705C21.1095 35.0005 20.8795 34.9505 20.6695 34.9505C20.4095 34.9505 20.1995 35.0305 20.0695 35.1705C19.9295 35.3105 19.8695 35.5605 19.8695 35.9005V37.5305H17.6995V33.2005L17.6895 33.2105Z" fill="#FFFFFF"/><path d="M22.449 30.7903V33.6603C22.289 33.4403 22.099 33.2703 21.859 33.1503C21.799 33.1203 21.739 33.0903 21.679 33.0703V34.6503C21.759 34.6103 21.849 34.5803 21.939 34.5803C22.119 34.5803 22.269 34.6403 22.379 34.7603C22.629 35.0103 22.609 35.5003 22.329 35.7203C22.249 35.7803 22.149 35.8303 22.049 35.8503C21.899 35.8803 21.739 35.8403 21.609 35.7503C21.459 35.6503 21.309 35.5403 21.159 35.4303C20.999 35.3203 20.849 35.2703 20.679 35.2703C20.419 35.2703 20.349 35.3503 20.319 35.3803C20.279 35.4103 20.209 35.5403 20.209 35.9003V37.2603C20.469 37.4403 20.779 37.5203 21.119 37.5203C21.409 37.5203 21.689 37.4403 21.949 37.3003C22.209 37.1603 22.419 36.9503 22.559 36.7103V37.5203H24.619V30.7803C24.619 30.7803 22.469 30.7803 22.469 30.8003L22.449 30.7903Z" fill="#FFFFFF"/><path d="M15.1992 31.84C15.1992 31.55 15.3092 31.31 15.5092 31.1C15.7192 30.9 15.9692 30.79 16.2692 30.79C16.5692 30.79 16.8292 30.89 17.0392 31.1C17.2492 31.3 17.3592 31.55 17.3592 31.84C17.3592 32.13 17.2492 32.38 17.0392 32.58C16.8292 32.78 16.5692 32.88 16.2692 32.88C15.9692 32.88 15.7192 32.78 15.5092 32.58C15.2992 32.38 15.1992 32.13 15.1992 31.84Z" fill="#FFFFFF"/><path d="M19.9985 28.8802C19.9985 28.8802 20.0785 28.8702 20.1485 28.8402L19.9585 28.6602C19.7785 28.7402 19.8685 28.8702 19.9985 28.8802Z" fill="#FFFFFF"/><path d="M23.5983 27.7195C23.4883 27.7795 23.5083 27.9195 23.5683 28.0195H24.7183C24.5983 27.9095 24.4783 27.8295 24.3583 27.7695C24.1483 27.6695 23.7883 27.6195 23.5983 27.7195Z" fill="#FFFFFF"/><path d="M16.1587 28.1496C16.1587 28.1496 16.1387 28.1796 16.1387 28.1996C16.1387 28.2996 16.2587 28.3396 16.3587 28.3196C16.3587 28.2096 16.2687 28.0696 16.1687 28.1496H16.1587Z" fill="#FFFFFF"/><path d="M20.2898 28.7903C20.2898 28.7903 20.3698 28.7503 20.3798 28.7203C20.3798 28.7203 20.3998 28.6803 20.3998 28.6503C20.2998 28.5703 20.1998 28.5703 20.0898 28.6103L20.2798 28.7903H20.2898Z" fill="#FFFFFF"/><path d="M20.5784 28.0199H21.1784C21.1184 27.9099 21.0484 27.8199 20.9784 27.7599C20.7384 27.5399 20.4284 27.6999 20.5784 28.0199Z" fill="#FFFFFF"/><path d="M27.1397 27.7197C27.0397 27.7797 27.0497 27.9297 27.1097 28.0197H28.2097C27.9497 27.7497 27.4897 27.5597 27.1397 27.7197Z" fill="#FFFFFF"/><path d="M28.1485 28.6001C28.0185 28.5301 27.9085 28.5601 27.7685 28.6201C27.5185 28.7301 27.7185 28.9301 27.9885 28.7401C28.0585 28.7001 28.1085 28.6801 28.1485 28.6201V28.6001Z" fill="#FFFFFF"/><path d="M15.1992 26.71V30.1H32.7992V26.71H15.1992ZM18.1292 28.17H17.7992V29.27H17.6992L17.5492 29.11V28.17H17.1292V29.27H17.0092L16.8692 29.12V28.77H16.5692C16.5392 28.88 16.5692 29 16.4492 29.04C16.3492 29.02 16.3192 28.95 16.2392 28.87C16.0592 28.66 15.9992 28.53 16.3292 28.56C16.3292 28.53 16.3492 28.5 16.3492 28.47C16.1292 28.51 15.7692 28.25 15.9592 28.03C16.2692 27.81 16.6492 28.24 16.5892 28.56H16.8692V28.18H16.5592L16.3792 27.96H18.1292V28.18V28.17ZM21.6892 28.24H21.3592V29.34H21.2492L21.0992 29.19V28.24H20.6692V29.35H20.5792L20.3992 29.2V29C20.1792 29.12 19.9892 29.13 19.7992 28.96C19.3492 28.59 20.0892 28.17 20.3992 28.49V28.26H19.5492V28.04H20.3392C20.0592 27.52 20.8492 27.27 21.1292 27.67C21.2092 27.76 21.2792 27.88 21.3392 28.04H21.6792V28.26L21.6892 28.24ZM25.2492 28.25H24.9192V29.36H24.8092L24.6592 29.21V28.94C24.4492 29.05 24.2592 29.06 24.0792 28.89C23.6392 28.53 24.3592 28.18 24.6592 28.43V28.25H23.6192V29.36H23.5092L23.3592 29.21V28.25H23.1192V28.03H23.3492C22.9892 27.39 24.1192 27.36 24.4592 27.61C24.6392 27.71 24.7892 27.85 24.9292 28.03H25.2492V28.25ZM28.7192 28.25H28.3992V29.36H28.2892L28.1392 29.21V28.95C27.9392 29.06 27.7492 29.07 27.5792 28.9C27.1592 28.55 27.8392 28.19 28.1392 28.44V28.26H27.1492V29.37H27.0392L26.8992 29.22V28.27H26.6692V28.05H26.8892C26.5392 27.43 27.6192 27.37 27.9592 27.63C28.1292 27.73 28.2792 27.87 28.4092 28.05H28.7192V28.27V28.25ZM32.0992 28.25H31.7892V29.35H31.6892L31.5392 29.19V28.25H31.1392V29.35H31.0292L30.8892 29.2V28.98L30.4892 29.25L30.3292 29.07L30.7492 28.8C30.5992 28.76 30.4292 28.69 30.3492 28.58C30.2892 28.5 30.2992 28.35 30.2992 28.24H30.1492V28.02H32.1092V28.24L32.0992 28.25Z" fill="#FFFFFF"/><path d="M30.5591 28.51C30.5591 28.51 30.5891 28.57 30.6191 28.6C30.6691 28.66 30.7991 28.7 30.8891 28.71V28.25H30.5391C30.5391 28.31 30.5391 28.46 30.5591 28.51Z" fill="#FFFFFF"/><path d="M24.6492 28.5995C24.5092 28.5195 24.3992 28.5595 24.2492 28.6195C23.9892 28.7395 24.1992 28.9295 24.4792 28.7395C24.5592 28.6995 24.6092 28.6795 24.6492 28.6195V28.5995Z" fill="#FFFFFF"/></g><defs><clipPath id="clip0_5017_11201"><rect width="17.6" height="27.1" fill="white" transform="translate(15.1992 10.4502)"/></clipPath></defs></svg>